<svg id="panda_1" data-name="panda 1" xmlns="http://www.w3.org/2000/svg" viewBox="0 0 504.15 504.15"><defs><style>.cls-1{fill:#fff;stroke-width:8px;}.cls-1,.cls-2{stroke:#f68b62;stroke-linecap:round;stroke-linejoin:round;}.cls-2{fill:#f68b62;stroke-width:5px;}</style></defs><path class="cls-1" d="M166.24,282.48c-26.21,0-47.45,32.44-47.45,72.47A107.42,107.42,0,0,0,121,376.83c-8.29,5.63-13.43,13.46-13.43,22.11,0,17.16,20.16,31.06,45,31.06a61.84,61.84,0,0,0,20.16-3.29c23.11-4.85,40.92-35.12,40.92-71.76C213.68,314.92,192.44,282.48,166.24,282.48Z"/><path class="cls-1" d="M383.53,377.08A108.22,108.22,0,0,0,385.79,355c0-40-21.24-72.47-47.45-72.47S290.9,314.92,290.9,355c0,36,17.19,65.86,39.72,71.49A61.54,61.54,0,0,0,351.55,430c24.87,0,45-13.9,45-31.06C396.58,390.42,391.59,382.7,383.53,377.08Z"/><path id="torso" class="cls-1" d="M377.25,209.27C362.69,145.14,319,97,252.07,97S141.46,145.14,126.9,209.27c-8.32,36.67-8.28,78.09,14.19,109,18.36,25.28,47,39.93,76.88,45.63a189.16,189.16,0,0,0,68.21,0c29.92-5.7,58.52-20.35,76.88-45.63C385.53,287.36,385.57,245.94,377.25,209.27Z"/><ellipse class="cls-1" cx="147.26" cy="155.23" rx="47.45" ry="43.57"/><ellipse class="cls-1" cx="356.89" cy="155.23" rx="47.45" ry="43.57"/><path class="cls-2" d="M154.82,159.7a6.13,6.13,0,0,0,.28-1.82c0-4.11-4.11-7.44-9.17-7.44s-9.17,3.33-9.17,7.44a6.21,6.21,0,0,0,.29,1.88c-3.85.88-6.67,3.75-6.67,7.16,0,4.11,4.1,7.44,9.17,7.44a10.28,10.28,0,0,0,6.51-2.2,10.3,10.3,0,0,0,6.51,2.2c5.07,0,9.17-3.33,9.17-7.44C161.74,163.44,158.8,160.52,154.82,159.7Z"/><ellipse class="cls-2" cx="126.66" cy="148.98" rx="3.99" ry="3.85"/><ellipse class="cls-2" cx="139.15" cy="139.68" rx="3.99" ry="3.85"/><ellipse class="cls-2" cx="156.43" cy="141.8" rx="3.99" ry="3.85"/><ellipse class="cls-2" cx="167.86" cy="152.7" rx="3.99" ry="3.85"/><path class="cls-2" d="M366.18,159.7a6.13,6.13,0,0,0,.28-1.82c0-4.11-4.11-7.44-9.17-7.44s-9.17,3.33-9.17,7.44a6.21,6.21,0,0,0,.29,1.88c-3.85.88-6.67,3.75-6.67,7.16,0,4.11,4.1,7.44,9.17,7.44a10.28,10.28,0,0,0,6.51-2.2,10.3,10.3,0,0,0,6.51,2.2c5.07,0,9.17-3.33,9.17-7.44C373.1,163.44,370.16,160.52,366.18,159.7Z"/><ellipse class="cls-2" cx="338.02" cy="148.98" rx="3.99" ry="3.85"/><ellipse class="cls-2" cx="350.51" cy="139.68" rx="3.99" ry="3.85"/><ellipse class="cls-2" cx="367.79" cy="141.8" rx="3.99" ry="3.85"/><ellipse class="cls-2" cx="379.22" cy="152.7" rx="3.99" ry="3.85"/></svg>