<svg id="panda_1" data-name="panda 1" xmlns="http://www.w3.org/2000/svg" viewBox="0 0 504.15 504.15"><defs><style>.cls-1,.cls-3{fill:#fff;}.cls-1,.cls-2,.cls-3{stroke:#f68b62;stroke-width:8px;}.cls-1,.cls-2{stroke-linecap:round;stroke-linejoin:round;}.cls-2{fill:#f68b62;}.cls-3{stroke-miterlimit:10;}</style></defs><path class="cls-1" d="M144.22,198.28c-43.18,57.9-69.33,47.14-91.6,30.53S26,193.46,56.9,149.87C98.68,91,172.33,59.23,182.08,63.36,207.66,74.19,187.4,140.37,144.22,198.28Z"/><path class="cls-2" d="M54.1,190.52c-7.62,7.21-10.42,17.56-10.05,27.85"/><path class="cls-2" d="M68.44,204c-8,6.66-9.2,14.74-10.12,24.48"/><path class="cls-1" d="M359.93,198.28c43.18,57.9,69.33,47.14,91.6,30.53s26.63-35.35-4.28-78.94C405.47,91,331.82,59.23,322.07,63.36,296.48,74.19,316.75,140.37,359.93,198.28Z"/><path class="cls-2" d="M450.05,190.52c7.61,7.21,10.42,17.56,10.05,27.85"/><path class="cls-2" d="M435.7,204c8,6.66,9.21,14.74,10.13,24.48"/><g id="legs"><path class="cls-3" d="M278.89,380.13c-10.6,72.78,16,83.86,44,87.93s44.62-6.28,53.75-59.92c12.34-72.5-17.84-148.36-27.84-152.41C322.55,245.11,289.49,307.35,278.89,380.13Z"/><path class="cls-3" d="M231.08,380.13c10.6,72.78-16,83.86-44,87.93s-44.62-6.28-53.75-59.92C121,335.64,151.21,259.78,161.2,255.73,187.42,245.11,220.48,307.35,231.08,380.13Z"/></g><path id="torso" class="cls-3" d="M386.19,157C370.93,90.9,325.09,41.27,255,41.27S139.05,90.9,123.79,157c-8.73,37.81-8.68,80.52,14.87,112.41,19.25,26.07,49.22,41.17,80.58,47.05a201.3,201.3,0,0,0,71.5,0c31.35-5.88,61.33-21,80.57-47.05C394.86,237.54,394.91,194.83,386.19,157Z"/></svg>