<svg id="panda_1" data-name="panda 1" xmlns="http://www.w3.org/2000/svg" viewBox="0 0 504.15 504.15"><defs><style>.cls-1{fill:#f68b62;}.cls-1,.cls-2{stroke:#f68b62;stroke-linecap:round;stroke-linejoin:round;stroke-width:8px;}.cls-2{fill:#fff;}</style></defs><g id="legs"><path class="cls-1" d="M278.89,380.13c-10.6,72.78,16,83.86,44,87.93s44.62-6.28,53.75-59.92c12.34-72.5-17.84-148.36-27.84-152.41C322.55,245.11,289.49,307.35,278.89,380.13Z"/><path class="cls-1" d="M231.08,380.13c10.6,72.78-16,83.86-44,87.93s-44.62-6.28-53.75-59.92C121,335.64,151.21,259.78,161.2,255.73,187.42,245.11,220.48,307.35,231.08,380.13Z"/></g><g id="arms"><path class="cls-1" d="M145.66,198.69c-44,59-70.59,48-93.27,31.09s-27.11-36,4.36-80.38c42.54-60,117.53-92.29,127.46-88.08C210.26,72.35,189.63,139.73,145.66,198.69Z"/><path class="cls-1" d="M364.31,198.69c44,59,70.59,48,93.27,31.09s27.11-36-4.36-80.38c-42.54-60-117.53-92.29-127.46-88.08C299.71,72.35,320.34,139.73,364.31,198.69Z"/></g><path id="torso" class="cls-2" d="M386.19,157C370.93,90.9,325.09,41.27,255,41.27S139.05,90.9,123.79,157c-8.73,37.81-8.68,80.52,14.87,112.41,19.25,26.07,49.22,41.17,80.58,47.05a201.3,201.3,0,0,0,71.5,0c31.35-5.88,61.33-21,80.57-47.05C394.86,237.54,394.91,194.83,386.19,157Z"/></svg>