<svg id="panda_1" data-name="panda 1" xmlns="http://www.w3.org/2000/svg" viewBox="0 0 504.15 504.15"><defs><style>.cls-1{fill:#fff;stroke:#f68b62;stroke-linecap:round;stroke-linejoin:round;stroke-width:8px;}</style></defs><g id="body-2"><g id="legs"><path class="cls-1" d="M276.33,379c-10.75,73.86,16.21,85.1,44.62,89.24s45.29-6.37,54.55-60.8c12.53-73.58-18.11-150.57-28.25-154.68C320.64,242,287.09,305.13,276.33,379Z"/><path class="cls-1" d="M227.81,379c10.76,73.86-16.21,85.1-44.61,89.24s-45.29-6.37-54.55-60.8c-12.53-73.58,18.11-150.57,28.25-154.68C183.51,242,217.06,305.13,227.81,379Z"/></g><g id="arms"><path class="cls-1" d="M361.42,194.87c44.62,59.83,68.69,50.91,88.71,36s22.94-33.12-9.14-78.06C397.63,92.05,325.85,56.06,316.88,59.5,293.35,68.52,316.8,135,361.42,194.87Z"/></g><g id="arms-2" data-name="arms"><path class="cls-1" d="M142.73,194.87C98.11,254.7,74,245.78,54,230.85s-22.94-33.12,9.14-78.06C106.52,92.05,178.3,56.06,187.27,59.5,210.8,68.52,187.35,135,142.73,194.87Z"/></g><path id="torso" class="cls-1" d="M364.37,152.58c-13.06-67.1-52.3-117.47-112.3-117.47S152.84,85.48,139.78,152.58c-7.46,38.37-7.42,81.71,12.73,114.08,16.47,26.45,42.13,41.77,69,47.74a145.63,145.63,0,0,0,61.19,0c26.84-6,52.49-21.29,69-47.74C371.79,234.29,371.83,191,364.37,152.58Z"/></g></svg>