<svg id="panda_1" data-name="panda 1" xmlns="http://www.w3.org/2000/svg" viewBox="0 0 504.15 504.15"><defs><style>.cls-1{fill:#fff;stroke:#f68b62;stroke-linecap:round;stroke-linejoin:round;stroke-width:8px;}</style></defs><g id="legs"><path class="cls-1" d="M274.35,381.81c-11.64,67.65,17.56,77.95,48.32,81.74s49-5.84,59.07-55.7c13.57-67.4-19.61-137.92-30.59-141.68C322.33,256.29,286,314.15,274.35,381.81Z"/><path class="cls-1" d="M229.79,381.81c11.65,67.65-17.55,77.95-48.31,81.74s-49-5.84-59.07-55.7C108.84,340.45,142,269.93,153,266.17,181.82,256.29,218.15,314.15,229.79,381.81Z"/></g><g id="arms"><path class="cls-1" d="M364.36,181.46c16.34,18.72,39.79,50,68.12,50.47,16.74.3,36.2-9.44,43.63-25.29,8.07-17.22-8.82-39.29-20.62-51.57a494.89,494.89,0,0,0-56.4-49.82c-17.31-13.18-36-28-57.07-35.22-5.43-1.86-14.78-6.09-20.77-4.34C296.5,72.94,319.31,129.85,364.36,181.46Z"/><path class="cls-1" d="M139.79,181.46c-16.34,18.72-39.79,50-68.13,50.47-16.73.3-36.19-9.44-43.62-25.29-8.07-17.22,8.82-39.29,20.62-51.57a494,494,0,0,1,56.4-49.82c17.31-13.18,36-28,57.07-35.22,5.43-1.86,14.78-6.09,20.77-4.34C207.65,72.94,184.84,129.85,139.79,181.46Z"/></g><path id="torso" class="cls-1" d="M396.26,163.31c-16.77-69.72-67.15-122-144.19-122s-127.41,52.32-144.18,122c-9.58,39.87-9.53,84.9,16.35,118.53,21.15,27.48,54.08,43.4,88.55,49.6a230.66,230.66,0,0,0,78.57,0c34.46-6.2,67.4-22.12,88.55-49.6C405.79,248.21,405.84,203.18,396.26,163.31Z"/><path id="torso-2" data-name="torso" class="cls-1" d="M332.71,174.21c-9.38-39-37.55-68.26-80.64-68.26s-71.26,29.27-80.63,68.26c-5.37,22.29-5.34,47.48,9.14,66.29,11.83,15.37,30.25,24.27,49.52,27.74a128.7,128.7,0,0,0,44,0c19.27-3.47,37.69-12.37,49.52-27.74C338.05,221.69,338.07,196.5,332.71,174.21Z"/></svg>