<svg id="panda_1" data-name="panda 1" xmlns="http://www.w3.org/2000/svg" viewBox="0 0 504.15 504.15"><defs><style>.cls-1{fill:#fff;stroke:#f68b62;stroke-linecap:round;stroke-linejoin:round;stroke-width:8px;}</style></defs><g id="ears-4"><path class="cls-1" d="M466.49,166.63c0,33.93-24,62.07-55.53,67.31a200.18,200.18,0,0,0-10.65-37.23,191.68,191.68,0,0,0-30.12-51.55A172.15,172.15,0,0,0,349,123.56a65.29,65.29,0,0,1,51.29-25.12C436.87,98.44,466.49,129,466.49,166.63Z"/><path class="cls-1" d="M423.18,166.3a31.26,31.26,0,0,1-22.87,30.41,191.68,191.68,0,0,0-30.12-51.55,30,30,0,0,1,22.52-10.25C409.54,134.91,423.18,149,423.18,166.3Z"/><path class="cls-1" d="M155.16,123.62A171.49,171.49,0,0,0,134,145.23,192,192,0,0,0,104,196.74,199.29,199.29,0,0,0,93.31,234c-31.54-5.18-55.65-33.36-55.65-67.33,0-37.66,29.62-68.19,66.16-68.19A65.31,65.31,0,0,1,155.16,123.62Z"/><path class="cls-1" d="M134,145.23A192,192,0,0,0,104,196.74,31.23,31.23,0,0,1,81,166.3c0-17.34,13.64-31.39,30.47-31.39A30,30,0,0,1,134,145.23Z"/></g></svg>