<svg id="panda_1" data-name="panda 1" xmlns="http://www.w3.org/2000/svg" viewBox="0 0 504.15 504.15"><defs><style>.cls-1{fill:#f68b62;stroke:#f68b62;stroke-linecap:round;stroke-linejoin:round;stroke-width:8px;}</style></defs><path class="cls-1" d="M323,104.26c.34.57,15.12-4.16,16.24-4.39a131.45,131.45,0,0,1,41.41-2.07c16.65,2,34-3.91,47.81,7,26.45,20.76,40.31,89.22,35.35,123C463.85,227.7,396.22,224.43,323,104.26Z"/><path class="cls-1" d="M181.11,104.26c-.35.57-15.12-4.16-16.24-4.39a131.45,131.45,0,0,0-41.41-2.07c-16.65,2-34-3.91-47.81,7C49.2,125.51,35.34,194,40.3,227.7,40.3,227.7,107.93,224.43,181.11,104.26Z"/></svg>