<svg id="panda_1" data-name="panda 1" xmlns="http://www.w3.org/2000/svg" viewBox="0 0 504.15 504.15"><defs><style>.cls-1{fill:#fff;stroke:#f68b62;stroke-linecap:round;stroke-linejoin:round;stroke-width:8px;}</style></defs><path class="cls-1" d="M223.38,136.94a161.55,161.55,0,0,0-20.29,5.24,173.85,173.85,0,0,0-35.55,16.3,183.19,183.19,0,0,0-29.13,21.69c1.25-14.2,3.07-28.39,5.72-42.43,2.38-12.61,5.36-25.27,11-37.07,4.8-10,12.9-25,26.56-26.72,6.82-.84,13.7,2,18.82,6.07a41.19,41.19,0,0,1,8.87,10.18C215.76,100.28,220.08,118.77,223.38,136.94Z"/><path class="cls-1" d="M203.09,142.18a173.85,173.85,0,0,0-35.55,16.3c2.36-25,8.14-60.35,22-55.21,7.26,2.69,9.5,12.58,11.13,20.11C201.44,127,202.28,134.19,203.09,142.18Z"/><path class="cls-1" d="M365.73,180.16a182.53,182.53,0,0,0-29.13-21.68,174.3,174.3,0,0,0-35.54-16.3A159.81,159.81,0,0,0,280.77,137c3.3-18.17,7.62-36.67,14-46.75A41,41,0,0,1,303.63,80c5.12-4.11,12-6.91,18.82-6.07,13.66,1.7,21.76,16.7,26.56,26.72,5.65,11.8,8.62,24.46,11,37.07C362.66,151.78,364.49,166,365.73,180.16Z"/><path class="cls-1" d="M336.6,158.48a174.3,174.3,0,0,0-35.54-16.3c.81-8,1.65-15.22,2.43-18.8,1.63-7.53,3.86-17.42,11.12-20.11C328.47,98.13,334.25,133.46,336.6,158.48Z"/></svg>