<svg id="panda_1" data-name="panda 1"
    xmlns="http://www.w3.org/2000/svg" viewBox="0 0 504.15 504.15">
    <defs>
        <style>.cls-1{fill:#fff;stroke:#f68b62;stroke-linecap:round;stroke-linejoin:round;stroke-width:7px;}</style>
    </defs>
    <path class="cls-1" d="M467.72,130.3c-.58,7.49-1.77,15-2.75,22.08-3.48,25.35-12,51.28-30.55,69.68l-1.4,1.37A187.8,187.8,0,0,0,343.28,110.5c17.34-9.47,36.83-16.32,56.08-21.2,16.43-4.17,38.34-10.64,54.09-1.18,7.86,4.73,12.37,13.73,13.82,22.79A82.92,82.92,0,0,1,467.72,130.3Z"/>
    <path class="cls-1" d="M426.21,161.11A106.48,106.48,0,0,1,418,186.28a187.64,187.64,0,0,0-41.58-52.43c1.29-.95,2.29-1.67,2.57-1.84a90.18,90.18,0,0,1,28.41-11.57c3.9-.86,11.15-1.66,15.22-.58C436.23,123.48,428,151.48,426.21,161.11Z"/>
    <path class="cls-1" d="M161,110.57A189.08,189.08,0,0,0,86.2,186.44a186.18,186.18,0,0,0-15,37l-1.46-1.42c-18.56-18.4-27.06-44.33-30.54-69.68-1-7.08-2.17-14.59-2.76-22.08a82.91,82.91,0,0,1,.46-19.39c1.45-9.06,5.95-18.06,13.82-22.79,15.75-9.46,37.66-3,54.09,1.18C124.09,94.19,143.63,101.07,161,110.57Z"/>
    <path class="cls-1" d="M125.12,132c.29.18,1.36,1,2.73,2A188.68,188.68,0,0,0,86.2,186.44a105.94,105.94,0,0,1-8.26-25.33c-1.81-9.63-10-37.63,3.56-41.25,4.07-1.08,11.31-.28,15.22.58A90,90,0,0,1,125.12,132Z"/>
</svg>