<svg id="panda_1" data-name="panda 1" xmlns="http://www.w3.org/2000/svg" viewBox="0 0 504.15 504.15"><defs><style>.cls-1{fill:#f68b62;}.cls-1,.cls-2,.cls-3,.cls-4{stroke:#f68b62;stroke-linecap:round;stroke-linejoin:round;}.cls-1,.cls-3,.cls-4{stroke-width:8px;}.cls-2,.cls-4{fill:#fff;}.cls-2{stroke-width:4px;}.cls-3{fill:none;}</style></defs><path class="cls-1" d="M325.3,344.82c-18.71,1.54-34.53-11.67-35.33-29.51s13.7-33.55,32.41-35.09,34.52,11.68,35.33,29.51S344,343.28,325.3,344.82Z"/><ellipse class="cls-2" cx="310.6" cy="298.33" rx="6.72" ry="6.84" transform="translate(-49.36 534.75) rotate(-77.14)"/><path class="cls-1" d="M215,311.54c1,17.84-13.47,32.73-32.22,33.26s-34.74-13.47-35.7-31.31,13.47-32.71,32.22-33.25S214,293.72,215,311.54Z"/><ellipse class="cls-2" cx="193.34" cy="296.85" rx="6.87" ry="6.69" transform="translate(-123.48 138.34) rotate(-30.34)"/><path id="mouth" class="cls-3" d="M271.43,377.14c-.64,2.29-2.61,3.31-6.23,4.14-3.08.7-7,.63-9.52-.88a7.25,7.25,0,0,1-3.61-6.13v.12a7.24,7.24,0,0,1-3.6,6.13C246,382,242,382.1,239,381.4c-3.62-.83-5.59-1.85-6.23-4.14"/><path class="cls-4" d="M260.87,356.6c0,2.17-3.94,9.43-8.8,9.43s-8.79-7.26-8.79-9.43c0-3.3,3.93-3.05,8.79-3.05S260.87,353.3,260.87,356.6Z"/><rect class="cls-4" x="244.6" y="382.17" width="14.96" height="10.56"/></svg>