<svg id="panda_1" data-name="panda 1" xmlns="http://www.w3.org/2000/svg" viewBox="0 0 504.15 504.15"><defs><style>.cls-1{fill:#f68b62;}.cls-1,.cls-2,.cls-3{stroke:#f68b62;stroke-linecap:round;stroke-linejoin:round;}.cls-1,.cls-3{stroke-width:8px;}.cls-2,.cls-3{fill:#fff;}.cls-2{stroke-width:4px;}</style></defs><g id="eyes-4"><path class="cls-1" d="M328.23,349.74c-19.45,1.6-35.9-12.13-36.74-30.68a32.64,32.64,0,0,1,1.19-10.29c7.05-9.34,22.22-24.22,47.26-24.37,12.39,4.29,21.37,15.29,22,28.86C362.76,331.81,347.67,348.14,328.23,349.74Z"/><ellipse class="cls-2" cx="312.95" cy="312.12" rx="6.98" ry="7.11" transform="translate(-60.99 547.76) rotate(-77.14)"/><path class="cls-1" d="M213.55,320c1,18.53-14,34-33.5,34.57s-36.12-14-37.11-32.55,14-34,33.5-34.57S212.55,301.48,213.55,320Z"/><ellipse class="cls-2" cx="191.04" cy="310.58" rx="7.14" ry="6.95" transform="translate(-130.73 139.06) rotate(-30.34)"/><path class="cls-3" d="M260.33,361.21c0,2-3.67,8.78-8.19,8.78s-8.19-6.76-8.19-8.78c0-3.07,3.66-2.83,8.19-2.83S260.33,358.14,260.33,361.21Z"/><polyline class="cls-3" points="233.82 387.98 252.14 378.2 270.45 387.98"/><line class="cls-3" x1="252.14" y1="369.99" x2="252.14" y2="378.2"/></g></svg>