<svg id="panda_1" data-name="panda 1" xmlns="http://www.w3.org/2000/svg" viewBox="0 0 504.15 504.15"><defs><style>.cls-1{fill:#f68b62;}.cls-1,.cls-2,.cls-3{stroke:#f68b62;stroke-linecap:round;stroke-linejoin:round;stroke-width:8px;}.cls-2{fill:#fff;}.cls-3{fill:none;}</style></defs><path class="cls-1" d="M336,264c-24.68-5.49-48.21,5.89-52.55,25.41s12.14,39.8,36.83,45.29,48.21-5.89,52.55-25.41S360.66,269.45,336,264Z"/><ellipse class="cls-2" cx="325.98" cy="284.11" rx="13.36" ry="12.34"/><path class="cls-1" d="M220.73,289.37c-4.34-19.52-27.87-30.9-52.55-25.41S127,289.73,131.35,309.25s27.87,30.9,52.55,25.41S225.07,308.89,220.73,289.37Z"/><ellipse class="cls-2" cx="178.92" cy="284.11" rx="13.36" ry="12.34"/><ellipse class="cls-2" cx="344.33" cy="299.54" rx="9.04" ry="8.38"/><ellipse class="cls-2" cx="196.72" cy="299.54" rx="9.04" ry="8.38"/><path id="mouth" class="cls-3" d="M275.76,360.09c-.92,4-15.15,3.92-17.63,2.6-1.54-.83-6.06-3.29-6.06-5.3v.11c0,4-8.1,6.57-11,6.38-2.44-.16-12-.58-12.67-3.68"/><path class="cls-2" d="M262.21,339c0,2.45-4.54,10.68-10.14,10.68s-10.13-8.23-10.13-10.68c0-3.74,4.54-3.45,10.13-3.45S262.21,335.22,262.21,339Z"/><path class="cls-2" d="M267,366.61c0,14.34-6.7,26-14.95,26s-14.94-11.62-14.94-26c0-1.06,0-2.11.12-3.14H266.9C267,364.5,267,365.55,267,366.61Z"/><line class="cls-3" x1="252.07" y1="380.22" x2="252.07" y2="365.83"/></svg>