<svg id="panda_1" data-name="panda 1" xmlns="http://www.w3.org/2000/svg" viewBox="0 0 504.15 504.15"><defs><style>.cls-1{fill:#fff;stroke:#f68b62;stroke-linecap:round;stroke-linejoin:round;stroke-width:7px;}</style></defs><path id="head" class="cls-1" d="M72.53,294.65a54.79,54.79,0,0,1-3.89,27.86,67.39,67.39,0,0,0-5.37,26.16c0,61.22,85.83,110.84,191.72,110.84s191.72-49.62,191.72-110.84a67.4,67.4,0,0,0-5.38-26.16,53.57,53.57,0,0,1-3.95-27.35,186,186,0,0,0,1.41-26A183.38,183.38,0,0,0,254.19,88.23c-101.16.43-183,82.57-183,183.83A185,185,0,0,0,72.53,294.65Z"/></svg>