<svg id="panda_1" data-name="panda 1" xmlns="http://www.w3.org/2000/svg" viewBox="0 0 504.15 504.15"><defs><style>.cls-1{fill:#fff;}.cls-1,.cls-2{stroke:#f68b62;stroke-linecap:round;stroke-linejoin:round;stroke-width:8px;}.cls-2{fill:none;}</style></defs><path class="cls-1" d="M438.4,316.51a53.53,53.53,0,0,1-3.95-27.34c10.92-87.16-48.1-173-133.76-195a202.28,202.28,0,0,0-97.24,0c-85.66,22-144.68,107.85-133.76,195a53.53,53.53,0,0,1-4,27.34,67.4,67.4,0,0,0-5.38,26.16c0,61.22,85.83,116.84,191.71,116.84s191.71-55.62,191.71-116.84A67.4,67.4,0,0,0,438.4,316.51Z"/><path class="cls-2" d="M99.5,325.66S64.64,292,40.07,296.39"/><path class="cls-2" d="M102,341c1.37-.36-44.34-15.42-67.35.09"/><path class="cls-2" d="M105.05,357.12c-3.17-.73-46.91-4.59-61,24.88"/><path class="cls-2" d="M404.65,325.66s34.86-33.66,59.42-29.27"/><path class="cls-2" d="M402.17,341c-1.37-.36,44.34-15.42,67.35.09"/><path class="cls-2" d="M399.1,357.12c3.17-.73,46.91-4.59,61,24.88"/></svg>