<svg id="panda_1" data-name="panda 1" xmlns="http://www.w3.org/2000/svg" viewBox="0 0 504.15 504.15"><defs><style>.cls-1{fill:#fff;stroke:#f68b62;stroke-linecap:round;stroke-linejoin:round;stroke-width:8px;}</style></defs><path class="cls-1" d="M462,324.32c-1-4.89-7.77-4.93-12.52-6.46-11.52-3.66-13.13-19-13.25-31.07-.59-57-16.91-115.15-53.47-158.88-31.95-38.2-80.49-63.8-130.69-63.65-50.2-.15-98.73,25.45-130.68,63.65C84.83,171.64,68.51,229.8,67.92,286.79c-.12,12.09-1.73,27.41-13.25,31.07-4.75,1.53-11.53,1.57-12.52,6.46-1.72,8.45,17.27,8.49,16.56,17.09-.41,5-7.14,6.13-11.08,9.23-4.85,3.8-5,12.17-.33,16.17s12.92,2.51,15.92-2.88c2.89,29.14,23.56,54.31,48.8,69.16s54.65,20.85,83.69,24.68a498.29,498.29,0,0,0,56.36,4.46,498.28,498.28,0,0,0,56.37-4.46c29-3.83,58.46-9.82,83.69-24.68s45.91-40,48.8-69.16c3,5.39,11.23,6.89,15.92,2.88s4.52-12.37-.33-16.17c-3.95-3.1-10.67-4.23-11.08-9.23C444.73,332.81,463.71,332.77,462,324.32Z"/></svg>