<svg id="panda_1" data-name="panda 1" xmlns="http://www.w3.org/2000/svg" viewBox="0 0 1080 1080"><defs><style>.cls-1,.cls-3{fill:#fff;}.cls-1,.cls-2,.cls-3{stroke:#f68b62;stroke-linecap:round;stroke-linejoin:round;}.cls-1,.cls-2{stroke-width:8px;}.cls-2{fill:#f68b62;}.cls-3{stroke-width:4px;}</style></defs><ellipse class="cls-1" cx="709.93" cy="223.19" rx="75.87" ry="78.19"/><ellipse class="cls-1" cx="701.2" cy="222.81" rx="34.93" ry="36"/><ellipse class="cls-1" cx="369.93" cy="223.19" rx="75.87" ry="78.19"/><ellipse class="cls-1" cx="378.66" cy="222.81" rx="34.93" ry="36"/><g id="body-2"><g id="legs"><path class="cls-1" d="M567.82,925.32c-12.34,84.7,18.59,97.59,51.16,102.33s51.93-7.31,62.55-69.72c14.36-84.38-20.76-172.65-32.4-177.36C618.62,768.21,580.15,840.63,567.82,925.32Z"/><path class="cls-1" d="M512.18,925.32c12.34,84.7-18.59,97.59-51.16,102.33s-51.93-7.31-62.55-69.72c-14.36-84.38,20.76-172.65,32.4-177.36C461.38,768.21,499.85,840.63,512.18,925.32Z"/></g><g id="arms"><path class="cls-1" d="M665.38,714.19c51.17,68.61,78.76,58.38,101.72,41.26s26.31-38-10.47-89.5C706.91,596.29,624.6,555,614.31,559,587.33,569.32,614.22,645.58,665.38,714.19Z"/></g><g id="arms-2" data-name="arms"><path class="cls-1" d="M414.62,714.19c-51.17,68.61-78.76,58.38-101.72,41.26s-26.31-38,10.47-89.5c49.72-69.66,132-110.93,142.32-107C492.67,569.32,465.78,645.58,414.62,714.19Z"/></g><path id="torso" class="cls-1" d="M668.76,665.7c-15-77-60-134.7-128.76-134.7S426.21,588.75,411.24,665.7c-8.56,44-8.52,93.7,14.59,130.81,18.89,30.34,48.31,47.91,79.08,54.75a167.36,167.36,0,0,0,70.18,0c30.77-6.84,60.19-24.41,79.08-54.75C677.28,759.4,677.32,709.7,668.76,665.7Z"/></g><path id="face-2" class="cls-1" d="M728.56,397.28a70,70,0,0,1-4-31.67c11.05-101-48.68-200.37-135.36-225.9a179.61,179.61,0,0,0-98.4,0c-86.68,25.53-146.41,124.93-135.36,225.9a70,70,0,0,1-4,31.67,87.91,87.91,0,0,0-5.44,30.3c0,70.92,86.86,135.35,194,135.35S734,498.5,734,427.58A87.91,87.91,0,0,0,728.56,397.28Z"/><path class="cls-2" d="M625.74,433.15c-22.3,1.84-41.16-13.91-42.12-35.18a37.41,37.41,0,0,1,1.36-11.8c8.09-10.71,25.48-27.77,54.19-27.94,14.21,4.92,24.51,17.53,25.21,33.09C665.34,412.59,648,431.32,625.74,433.15Z"/><ellipse class="cls-3" cx="608.22" cy="390.02" rx="8.01" ry="8.15" transform="translate(92.63 896.19) rotate(-77.14)"/><path class="cls-2" d="M454.26,433.15c22.3,1.84,41.16-13.91,42.12-35.18a37.41,37.41,0,0,0-1.36-11.8c-8.09-10.71-25.48-27.77-54.19-27.94-14.21,4.92-24.51,17.53-25.21,33.09C414.66,412.59,432,431.32,454.26,433.15Z"/><ellipse class="cls-3" cx="471.78" cy="390.02" rx="8.15" ry="8.01" transform="translate(-74.97 114.77) rotate(-12.86)"/><path class="cls-1" d="M549.39,446.31c0,2.31-4.2,10.07-9.39,10.07s-9.39-7.76-9.39-10.07c0-3.53,4.2-3.25,9.39-3.25S549.39,442.78,549.39,446.31Z"/><polyline class="cls-1" points="519 477 540 465.79 561 477"/><line class="cls-1" x1="540" y1="456.38" x2="540" y2="465.79"/></svg>