<svg width="1080" height="1080" viewBox="0 0 1080 1080" fill="none"
    xmlns="http://www.w3.org/2000/svg">
    <g id="avatar-5">
        <g id="body-5">
            <path id="Vector" d="M454.16 716.48C427.96 716.48 406.71 748.92 406.71 788.95C406.701 796.299 407.442 803.631 408.92 810.83C400.64 816.46 395.5 824.29 395.5 832.94C395.5 850.1 415.66 864 440.5 864C447.353 864.029 454.163 862.918 460.65 860.71C483.77 855.86 501.58 825.59 501.58 788.95C501.61 748.92 480.37 716.48 454.16 716.48Z" fill="white" stroke="#F68B62" stroke-width="8" stroke-linecap="round" stroke-linejoin="round"/>
            <path id="Vector_2" d="M671.45 811.08C672.966 803.818 673.727 796.419 673.72 789C673.72 749 652.47 716.53 626.27 716.53C600.07 716.53 578.82 748.92 578.82 789C578.82 825 596.02 854.86 618.55 860.49C625.267 862.862 632.346 864.05 639.47 864C664.34 864 684.47 850.1 684.47 832.94C684.5 824.42 679.52 816.7 671.45 811.08Z" fill="white" stroke="#F68B62" stroke-width="8" stroke-linecap="round" stroke-linejoin="round"/>
            <path id="torso" d="M665.17 643.27C650.62 579.14 606.88 531 540 531C473.12 531 429.38 579.14 414.83 643.27C406.5 679.94 406.55 721.36 429.01 752.27C447.38 777.55 476.01 792.2 505.89 797.9C528.442 802.033 551.558 802.033 574.11 797.9C604.03 792.2 632.62 777.55 650.99 752.27C673.45 721.36 673.5 679.94 665.17 643.27Z" fill="white" stroke="#F68B62" stroke-width="8" stroke-linecap="round" stroke-linejoin="round"/>
            <path id="Vector_3" d="M435.18 632.8C461.386 632.8 482.63 613.293 482.63 589.23C482.63 565.167 461.386 545.66 435.18 545.66C408.974 545.66 387.73 565.167 387.73 589.23C387.73 613.293 408.974 632.8 435.18 632.8Z" fill="white" stroke="#F68B62" stroke-width="8" stroke-linecap="round" stroke-linejoin="round"/>
            <path id="Vector_4" d="M644.82 632.8C671.026 632.8 692.27 613.293 692.27 589.23C692.27 565.167 671.026 545.66 644.82 545.66C618.614 545.66 597.37 565.167 597.37 589.23C597.37 613.293 618.614 632.8 644.82 632.8Z" fill="white" stroke="#F68B62" stroke-width="8" stroke-linecap="round" stroke-linejoin="round"/>
            <path id="Vector_5" d="M442.75 593.7C442.931 593.11 443.022 592.497 443.02 591.88C443.02 587.77 438.92 584.44 433.85 584.44C428.78 584.44 424.68 587.77 424.68 591.88C424.683 592.518 424.784 593.152 424.98 593.76C421.13 594.64 418.3 597.51 418.3 600.92C418.3 605.03 422.41 608.36 427.47 608.36C429.831 608.393 432.132 607.617 433.99 606.16C435.843 607.618 438.142 608.395 440.5 608.36C445.56 608.36 449.67 605.03 449.67 600.92C449.67 597.44 446.72 594.52 442.75 593.7Z" fill="#F68B62" stroke="#F68B62" stroke-width="5" stroke-linecap="round" stroke-linejoin="round"/>
            <path id="Vector_6" d="M414.58 586.83C416.783 586.83 418.57 585.106 418.57 582.98C418.57 580.854 416.783 579.13 414.58 579.13C412.376 579.13 410.59 580.854 410.59 582.98C410.59 585.106 412.376 586.83 414.58 586.83Z" fill="#F68B62" stroke="#F68B62" stroke-width="5" stroke-linecap="round" stroke-linejoin="round"/>
            <path id="Vector_7" d="M427.08 577.53C429.283 577.53 431.07 575.806 431.07 573.68C431.07 571.554 429.283 569.83 427.08 569.83C424.876 569.83 423.09 571.554 423.09 573.68C423.09 575.806 424.876 577.53 427.08 577.53Z" fill="#F68B62" stroke="#F68B62" stroke-width="5" stroke-linecap="round" stroke-linejoin="round"/>
            <path id="Vector_8" d="M444.35 579.65C446.554 579.65 448.34 577.926 448.34 575.8C448.34 573.674 446.554 571.95 444.35 571.95C442.146 571.95 440.36 573.674 440.36 575.8C440.36 577.926 442.146 579.65 444.35 579.65Z" fill="#F68B62" stroke="#F68B62" stroke-width="5" stroke-linecap="round" stroke-linejoin="round"/>
            <path id="Vector_9" d="M455.78 590.55C457.984 590.55 459.77 588.826 459.77 586.7C459.77 584.574 457.984 582.85 455.78 582.85C453.576 582.85 451.79 584.574 451.79 586.7C451.79 588.826 453.576 590.55 455.78 590.55Z" fill="#F68B62" stroke="#F68B62" stroke-width="5" stroke-linecap="round" stroke-linejoin="round"/>
            <path id="Vector_10" d="M654.11 593.7C654.291 593.11 654.382 592.497 654.38 591.88C654.38 587.77 650.28 584.44 645.21 584.44C640.14 584.44 636.04 587.77 636.04 591.88C636.043 592.518 636.144 593.152 636.34 593.76C632.49 594.64 629.66 597.51 629.66 600.92C629.66 605.03 633.77 608.36 638.83 608.36C641.191 608.393 643.492 607.617 645.35 606.16C647.204 607.618 649.502 608.395 651.86 608.36C656.92 608.36 661.03 605.03 661.03 600.92C661 597.44 658.08 594.52 654.11 593.7Z" fill="#F68B62" stroke="#F68B62" stroke-width="5" stroke-linecap="round" stroke-linejoin="round"/>
            <path id="Vector_11" d="M625.94 586.83C628.144 586.83 629.93 585.106 629.93 582.98C629.93 580.854 628.144 579.13 625.94 579.13C623.737 579.13 621.95 580.854 621.95 582.98C621.95 585.106 623.737 586.83 625.94 586.83Z" fill="#F68B62" stroke="#F68B62" stroke-width="5" stroke-linecap="round" stroke-linejoin="round"/>
            <path id="Vector_12" d="M638.44 577.53C640.644 577.53 642.43 575.806 642.43 573.68C642.43 571.554 640.644 569.83 638.44 569.83C636.237 569.83 634.45 571.554 634.45 573.68C634.45 575.806 636.237 577.53 638.44 577.53Z" fill="#F68B62" stroke="#F68B62" stroke-width="5" stroke-linecap="round" stroke-linejoin="round"/>
            <path id="Vector_13" d="M655.71 579.65C657.913 579.65 659.7 577.926 659.7 575.8C659.7 573.674 657.913 571.95 655.71 571.95C653.506 571.95 651.72 573.674 651.72 575.8C651.72 577.926 653.506 579.65 655.71 579.65Z" fill="#F68B62" stroke="#F68B62" stroke-width="5" stroke-linecap="round" stroke-linejoin="round"/>
            <path id="Vector_14" d="M667.14 590.55C669.344 590.55 671.13 588.826 671.13 586.7C671.13 584.574 669.344 582.85 667.14 582.85C664.936 582.85 663.15 584.574 663.15 586.7C663.15 588.826 664.936 590.55 667.14 590.55Z" fill="#F68B62" stroke="#F68B62" stroke-width="5" stroke-linecap="round" stroke-linejoin="round"/>
        </g>
        <path id="face-5" d="M755.85 423.28C751.65 413.28 749.91 376.38 751.27 365.61C763.92 264.61 695.55 165.24 596.32 139.71C559.332 130.55 520.668 130.55 483.68 139.71C384.45 165.24 316.08 264.64 328.73 365.61C330.09 376.38 328.35 408.26 324.15 418.28C320.075 427.864 317.957 438.166 317.92 448.58C317.92 519.5 417.35 562.93 540 562.93C662.65 562.93 762.08 524.5 762.08 453.58C762.043 443.166 759.924 432.864 755.85 423.28Z" fill="white" stroke="#F68B62" stroke-width="9" stroke-linecap="round" stroke-linejoin="round"/>
        <g id="ears-5">
            <path id="Vector_15" d="M630 141.48C630.44 142.19 649.18 136.2 650.6 135.91C667.854 132.259 685.578 131.372 703.11 133.28C724.23 135.76 746.21 128.33 763.76 142.1C797.3 168.42 814.87 255.25 808.59 298C808.59 298 722.82 293.88 630 141.48Z" fill="#F68B62" stroke="#F68B62" stroke-width="8" stroke-linecap="round" stroke-linejoin="round"/>
            <path id="Vector_16" d="M450 141.48C449.56 142.19 430.82 136.2 429.4 135.91C412.146 132.259 394.422 131.372 376.89 133.28C355.77 135.76 333.79 128.33 316.24 142.1C282.7 168.42 265.13 255.25 271.41 298C271.41 298 357.18 293.88 450 141.48Z" fill="#F68B62" stroke="#F68B62" stroke-width="8" stroke-linecap="round" stroke-linejoin="round"/>
        </g>
        <g id="eyes-5">
            <path id="Vector_17" d="M635.15 362.15C607.15 355.92 580.47 368.82 575.55 390.97C570.63 413.12 589.32 436.1 617.32 442.33C645.32 448.56 671.99 435.65 676.91 413.51C681.83 391.37 663.14 368.37 635.15 362.15Z" fill="#F68B62" stroke="#F68B62" stroke-width="8" stroke-linecap="round" stroke-linejoin="round"/>
            <path id="Vector_18" d="M623.82 399C632.187 399 638.97 392.732 638.97 385C638.97 377.268 632.187 371 623.82 371C615.453 371 608.67 377.268 608.67 385C608.67 392.732 615.453 399 623.82 399Z" fill="white" stroke="#F68B62" stroke-width="8" stroke-linecap="round" stroke-linejoin="round"/>
            <path id="Vector_19" d="M504.45 391C499.53 368.85 472.84 355.95 444.85 362.18C416.86 368.41 398.16 391.4 403.09 413.54C408.02 435.68 434.69 448.54 462.68 442.36C490.67 436.18 509.37 413.1 504.45 391Z" fill="#F68B62" stroke="#F68B62" stroke-width="8" stroke-linecap="round" stroke-linejoin="round"/>
            <path id="Vector_20" d="M457.04 399C465.407 399 472.19 392.732 472.19 385C472.19 377.268 465.407 371 457.04 371C448.673 371 441.89 377.268 441.89 385C441.89 392.732 448.673 399 457.04 399Z" fill="white" stroke="#F68B62" stroke-width="8" stroke-linecap="round" stroke-linejoin="round"/>
            <path id="Vector_21" d="M644.63 412C650.291 412 654.88 407.747 654.88 402.5C654.88 397.253 650.291 393 644.63 393C638.969 393 634.38 397.253 634.38 402.5C634.38 407.747 638.969 412 644.63 412Z" fill="white" stroke="#F68B62" stroke-width="8" stroke-linecap="round" stroke-linejoin="round"/>
            <path id="Vector_22" d="M477.23 412C482.891 412 487.48 407.747 487.48 402.5C487.48 397.253 482.891 393 477.23 393C471.569 393 466.98 397.253 466.98 402.5C466.98 407.747 471.569 412 477.23 412Z" fill="white" stroke="#F68B62" stroke-width="8" stroke-linecap="round" stroke-linejoin="round"/>
            <path id="mouth" d="M566.86 471.17C565.86 475.74 549.67 475.61 546.86 474.11C545.11 473.18 539.99 470.39 539.99 468.11V468.24C539.99 472.81 530.79 475.69 527.49 475.47C524.73 475.29 513.93 474.81 513.13 471.3" stroke="#F68B62" stroke-width="8" stroke-linecap="round" stroke-linejoin="round"/>
            <path id="Vector_23" d="M551.49 447.2C551.49 449.99 546.35 459.31 540 459.31C533.65 459.31 528.51 450 528.51 447.2C528.51 442.96 533.65 443.29 540 443.29C546.35 443.29 551.49 443 551.49 447.2Z" fill="white" stroke="#F68B62" stroke-width="8" stroke-linecap="round" stroke-linejoin="round"/>
            <path id="Vector_24" d="M557 478.57C557 494.83 549.41 508 540 508C530.59 508 523 494.83 523 478.57C523 477.36 523.05 476.17 523.14 475H556.76C556.9 476.17 557 477.36 557 478.57Z" fill="white" stroke="#F68B62" stroke-width="8" stroke-linecap="round" stroke-linejoin="round"/>
            <path id="Vector_25" d="M540 494V477.68" stroke="#F68B62" stroke-width="8" stroke-linecap="round" stroke-linejoin="round"/>
        </g>
    </g>
</svg>
