<svg id="panda_1" data-name="panda 1" xmlns="http://www.w3.org/2000/svg" viewBox="0 0 1080 1080"><defs><style>.cls-1{fill:#f68b62;}.cls-1,.cls-2,.cls-3{stroke:#f68b62;stroke-linecap:round;stroke-linejoin:round;stroke-width:8px;}.cls-2{fill:#fff;}.cls-3{fill:none;}</style></defs><g id="body-1"><g id="legs"><path class="cls-1" d="M567.82,926.66c-12.34,84.69,18.59,97.58,51.16,102.33s51.93-7.31,62.55-69.73c14.36-84.37-20.76-172.65-32.4-177.36C618.62,769.54,580.15,842,567.82,926.66Z"/><path class="cls-1" d="M512.18,926.66c12.34,84.69-18.59,97.58-51.16,102.33s-51.93-7.31-62.55-69.73c-14.36-84.37,20.76-172.65,32.4-177.36C461.38,769.54,499.85,842,512.18,926.66Z"/></g><g id="arms"><path class="cls-1" d="M412.78,715.53c-51.16,68.61-82.14,55.85-108.53,36.18s-31.55-41.89,5.07-93.54c49.5-69.81,136.76-107.39,148.32-102.5C488,568.5,463.94,646.92,412.78,715.53Z"/><path class="cls-1" d="M667.22,715.53c51.16,68.61,82.14,55.85,108.53,36.18s31.55-41.89-5.07-93.54c-49.5-69.81-136.76-107.39-148.32-102.5C592.05,568.5,616.06,646.92,667.22,715.53Z"/></g><path id="torso" class="cls-2" d="M695.67,667c-18.11-76.95-72.49-134.7-155.67-134.7S402.44,590.09,384.33,667C374,711,374,760.74,402,797.85c22.83,30.33,58.4,47.9,95.6,54.75a243.72,243.72,0,0,0,84.84,0c37.2-6.85,72.77-24.42,95.6-54.75C706,760.74,706,711,695.67,667Z"/></g><g id="ears-1"><ellipse class="cls-1" cx="725.04" cy="205.23" rx="82.62" ry="85.15"/><ellipse class="cls-1" cx="354.96" cy="205.23" rx="82.62" ry="85.15"/></g><path id="face-1" class="cls-2" d="M327.68,373.36a63.69,63.69,0,0,1-4.52,32.42,78.29,78.29,0,0,0-6.26,30.44c0,71.24,99.88,129,223.1,129s223.1-57.74,223.1-129a78.29,78.29,0,0,0-6.26-30.44,62.37,62.37,0,0,1-4.6-31.83,215.76,215.76,0,0,0,1.65-30.24A213.39,213.39,0,0,0,539.07,133.16c-117.71.5-213,96.08-213,213.91A217.18,217.18,0,0,0,327.68,373.36Z"/><g id="eyes-1"><g id="eyes"><ellipse class="cls-1" cx="630.63" cy="399.95" rx="44.68" ry="56.48" transform="matrix(0.26, -0.97, 0.97, 0.26, 81.19, 905.69)"/><ellipse class="cls-2" cx="607.44" cy="381.4" rx="11.38" ry="9.27"/><ellipse class="cls-1" cx="449.37" cy="399.95" rx="56.48" ry="44.68" transform="translate(-88.14 129.82) rotate(-14.99)"/><ellipse class="cls-2" cx="472.56" cy="381.4" rx="11.38" ry="9.27"/></g><path id="mouth" class="cls-3" d="M556.86,472.51c-.56,2.44-2.28,3.53-5.43,4.41-2.68.75-6.13.68-8.29-.93a8.26,8.26,0,0,1-3.14-6.55v.13a8.27,8.27,0,0,1-3.14,6.55c-2.16,1.61-5.61,1.68-8.29.93-3.15-.88-4.87-2-5.43-4.42"/><path id="nose" class="cls-2" d="M551.49,452.29c0,2.79-5.14,8.36-11.49,8.36s-11.49-5.57-11.49-8.36c0-4.23,5.14-7.66,11.49-7.66S551.49,448.06,551.49,452.29Z"/></g></svg>