<svg id="panda_1" data-name="panda 1" xmlns="http://www.w3.org/2000/svg" viewBox="0 0 1080 1080"><defs><style>.cls-1,.cls-3{fill:#fff;}.cls-1,.cls-2,.cls-3,.cls-4{stroke:#f68b62;stroke-linecap:round;stroke-linejoin:round;}.cls-1,.cls-2,.cls-4{stroke-width:8px;}.cls-2{fill:#f68b62;}.cls-3{stroke-width:9px;}.cls-4{fill:none;}</style></defs><path class="cls-1" d="M412.21,714.19C361,782.8,330.06,770.05,303.68,750.37s-31.56-41.88,5.07-93.53c49.5-69.82,136.76-107.4,148.32-102.51C487.38,567.17,463.37,645.58,412.21,714.19Z"/><path class="cls-2" d="M305.43,705c-9,8.55-12.34,20.81-11.91,33"/><path class="cls-2" d="M322.43,721c-9.51,7.89-10.91,17.46-12,29"/><path class="cls-1" d="M667.79,714.19c51.17,68.61,82.15,55.86,108.53,36.18s31.56-41.88-5.07-93.53C721.75,587,634.49,549.44,622.93,554.33,592.62,567.17,616.63,645.58,667.79,714.19Z"/><path class="cls-2" d="M774.57,705c9,8.55,12.34,20.81,11.91,33"/><path class="cls-2" d="M757.57,721c9.51,7.89,10.91,17.46,12,29"/><g id="legs"><path class="cls-1" d="M567.82,925.32c-12.34,84.7,18.59,97.59,51.16,102.33s51.93-7.31,62.55-69.72c14.36-84.38-20.76-172.65-32.4-177.36C618.62,768.21,580.15,840.63,567.82,925.32Z"/><path class="cls-1" d="M512.18,925.32c12.34,84.7-18.59,97.59-51.16,102.33s-51.93-7.31-62.55-69.72c-14.36-84.38,20.76-172.65,32.4-177.36C461.38,768.21,499.85,840.63,512.18,925.32Z"/></g><path id="torso" class="cls-1" d="M692.67,665.7C674.92,588.75,621.58,531,540,531S405.08,588.75,387.33,665.7c-10.15,44-10.1,93.7,17.3,130.81,22.4,30.34,57.28,47.91,93.77,54.75a234.46,234.46,0,0,0,83.2,0c36.49-6.84,71.37-24.41,93.77-54.75C702.77,759.4,702.82,709.7,692.67,665.7Z"/><path class="cls-1" d="M785.8,192.9c-.88,10.89-2.67,21.81-4.13,32.13-5.23,36.87-18,74.61-45.88,101.37-.9.87-1.83,1.75-2.78,2.6a264,264,0,0,0-22.27-53.81,277.78,277.78,0,0,0-112.07-111c26.1-13.84,55.45-23.85,84.45-31,24.68-6.07,57.58-15.49,81.24-1.72,11.81,6.87,18.58,20,20.76,33.16A117.29,117.29,0,0,1,785.8,192.9Z"/><path class="cls-1" d="M737,240.73a190.15,190.15,0,0,1-16.59,42.79,321.44,321.44,0,0,0-59.28-94.6c2.36-1.59,4.21-2.81,4.71-3.09a138,138,0,0,1,46.45-16.38c6.29-1,17.88-1.51,24.2.8C757.6,178,741.11,224.6,737,240.73Z"/><path class="cls-1" d="M294.2,192.9c.88,10.89,2.67,21.81,4.13,32.13,5.23,36.87,18,74.61,45.88,101.37.9.87,1.83,1.75,2.78,2.6a264,264,0,0,1,22.27-53.81,277.78,277.78,0,0,1,112.07-111c-26.1-13.84-55.45-23.85-84.45-31-24.68-6.07-57.58-15.49-81.24-1.72-11.81,6.87-18.58,20-20.76,33.16A117.29,117.29,0,0,0,294.2,192.9Z"/><path class="cls-1" d="M343,240.73a190.15,190.15,0,0,0,16.59,42.79,321.44,321.44,0,0,1,59.28-94.6c-2.36-1.59-4.21-2.81-4.71-3.09a138,138,0,0,0-46.45-16.38c-6.29-1-17.88-1.51-24.2.8C322.4,178,338.89,224.6,343,240.73Z"/><path id="face-2" class="cls-3" d="M755.85,397.28a61.89,61.89,0,0,1-4.58-31.67c12.65-101-55.72-200.37-154.95-225.9a234.29,234.29,0,0,0-112.64,0c-99.23,25.53-167.6,124.93-154.95,225.9a61.89,61.89,0,0,1-4.58,31.67,78.16,78.16,0,0,0-6.23,30.3c0,70.92,99.43,135.35,222.08,135.35S762.08,498.5,762.08,427.58A78.16,78.16,0,0,0,755.85,397.28Z"/><path class="cls-2" d="M635.15,442.33c-28,6.23-54.68-6.68-59.6-28.82s13.77-45.13,41.77-51.37S672,368.83,676.91,391,663.14,436.1,635.15,442.33Z"/><ellipse class="cls-1" cx="604.92" cy="385.19" rx="10.46" ry="8.52"/><path class="cls-2" d="M504.45,413.51c-4.92,22.14-31.61,35.05-59.6,28.82S398.16,413.11,403.09,391s31.6-35,59.59-28.82S509.37,391.37,504.45,413.51Z"/><ellipse class="cls-1" cx="475.93" cy="385.19" rx="10.46" ry="8.52"/><path id="mouth" class="cls-4" d="M556.86,471.17c-.56,2.44-2.28,3.53-5.43,4.41-2.68.76-6.13.68-8.29-.93a8.24,8.24,0,0,1-3.14-6.54v.12a8.24,8.24,0,0,1-3.14,6.55c-2.16,1.61-5.61,1.68-8.29.93-3.15-.88-4.87-2-5.43-4.41"/><path class="cls-1" d="M551.49,447.2c0,2.79-5.14,12.11-11.49,12.11S528.51,450,528.51,447.2c0-4.24,5.14-3.91,11.49-3.91S551.49,443,551.49,447.2Z"/></svg>