<svg width="1080" height="1080" viewBox="0 0 1080 1080" fill="none"
    xmlns="http://www.w3.org/2000/svg">
    <g id="avatar-3" filter="url(#filter0_d_47_90)">
        <g id="body-3">
            <g id="legs">
                <path id="legs_2" d="M563.59 901.66C551.26 973.3 582.18 984.2 614.75 988.22C647.32 992.24 666.68 982.04 677.31 929.22C691.67 857.85 656.54 783.22 644.91 779.22C614.4 768.75 575.93 830 563.59 901.66Z" fill="white" stroke="#F68B62" stroke-width="8" stroke-linecap="round" stroke-linejoin="round"/>
                <path id="legs_3" d="M516.41 901.66C528.74 973.3 497.82 984.2 465.25 988.22C432.68 992.24 413.32 982.04 402.69 929.22C388.33 857.85 423.46 783.22 435.09 779.22C465.6 768.75 504.07 830 516.41 901.66Z" fill="white" stroke="#F68B62" stroke-width="8" stroke-linecap="round" stroke-linejoin="round"/>
            </g>
            <g id="arms">
                <path id="arms_2" d="M658.9 689.52C676.2 709.33 701 742.41 731 743C748.72 743.32 769.32 733 777.19 716.22C785.74 697.99 767.85 674.61 755.36 661.61C736.822 642.535 716.858 624.901 695.64 608.86C677.3 594.86 657.51 579.22 635.21 571.56C629.45 569.56 619.55 565.11 613.21 566.97C587 574.6 611.19 634.87 658.9 689.52Z" fill="white" stroke="#F68B62" stroke-width="8" stroke-linecap="round" stroke-linejoin="round"/>
                <path id="arms_3" d="M421.1 689.52C403.8 709.33 379 742.41 349 743C331.28 743.32 310.68 733 302.81 716.22C294.26 697.99 312.15 674.61 324.64 661.61C343.178 642.535 363.143 624.901 384.36 608.86C402.7 594.86 422.49 579.22 444.79 571.56C450.55 569.56 460.45 565.11 466.79 566.97C493 574.6 468.81 634.87 421.1 689.52Z" fill="white" stroke="#F68B62" stroke-width="8" stroke-linecap="round" stroke-linejoin="round"/>
            </g>
            <path id="torso" d="M692.67 670.3C674.92 596.47 621.58 541.07 540 541.07C458.42 541.07 405.08 596.47 387.33 670.3C377.18 712.51 377.23 760.2 404.63 795.8C427.03 824.9 461.91 841.8 498.4 848.33C525.929 853.09 554.071 853.09 581.6 848.33C618.09 841.76 652.97 824.9 675.37 795.8C702.77 760.2 702.82 712.51 692.67 670.3Z" fill="white" stroke="#F68B62" stroke-width="8" stroke-linecap="round" stroke-linejoin="round"/>
            <path id="torso_2" d="M625.39 681.84C615.46 640.55 585.62 609.56 540 609.56C494.38 609.56 464.54 640.56 454.61 681.84C448.93 705.44 448.97 732.12 464.29 752.03C476.82 768.31 496.29 777.73 516.73 781.41C532.13 784.064 547.87 784.064 563.27 781.41C583.68 777.73 603.18 768.31 615.71 752.03C631 732.12 631.07 705.44 625.39 681.84Z" fill="white" stroke="#F68B62" stroke-width="8" stroke-linecap="round" stroke-linejoin="round"/>
        </g>
        <g id="ears-3">
            <path id="Vector" d="M494.44 97.3C507.03 117.21 512.12 167.91 516.66 190.18C517.66 194.82 519.43 201.57 517.35 206.18C514.85 211.69 510.35 208.85 505.17 207.27C476.8 198.73 446.07 197.83 417.63 207.48C418.803 187.526 421.198 167.662 424.8 148C427.35 134.54 430.52 121 436.55 108.43C441.67 97.75 450.32 81.73 464.9 79.92C472.17 79.02 479.51 82.01 484.98 86.39C488.713 89.4809 491.909 93.1672 494.44 97.3Z" fill="white" stroke="#F68B62" stroke-width="8" stroke-linecap="round" stroke-linejoin="round"/>
            <path id="Vector_2" d="M485.13 132.71C487.22 142.37 489.8 176.77 490.93 186.56C491.23 189.09 493.47 200.4 491.18 202.11C489.06 203.7 479.26 199.63 476.31 199.45C471.15 199.15 465.96 199.56 460.78 199.38C457.96 199.28 454.84 199.56 452.05 199.14C447.53 198.47 447.95 199.44 448.15 194.59C448.49 186.07 451.83 103.3 473.26 111.25C481 114.12 483.39 124.67 485.13 132.71Z" fill="white" stroke="#F68B62" stroke-width="8" stroke-linecap="round" stroke-linejoin="round"/>
            <path id="Vector_3" d="M585.56 97.3C572.97 117.21 567.88 167.91 563.34 190.18C562.34 194.82 560.57 201.57 562.65 206.18C565.15 211.69 569.65 208.85 574.83 207.27C603.2 198.73 633.93 197.83 662.37 207.48C661.197 187.526 658.802 167.662 655.2 148C652.65 134.54 649.48 121 643.45 108.43C638.33 97.75 629.68 81.73 615.1 79.92C607.83 79.02 600.49 82.01 595.02 86.39C591.287 89.4809 588.091 93.1672 585.56 97.3Z" fill="white" stroke="#F68B62" stroke-width="8" stroke-linecap="round" stroke-linejoin="round"/>
            <path id="Vector_4" d="M594.87 132.71C592.78 142.37 590.2 176.77 589.07 186.56C588.77 189.09 586.53 200.4 588.82 202.11C590.94 203.7 600.74 199.63 603.69 199.45C608.85 199.15 614.04 199.56 619.22 199.38C622.04 199.28 625.16 199.56 627.95 199.14C632.47 198.47 632.05 199.44 631.85 194.59C631.51 186.07 628.17 103.3 606.74 111.25C599 114.12 596.61 124.67 594.87 132.71Z" fill="white" stroke="#F68B62" stroke-width="8" stroke-linecap="round" stroke-linejoin="round"/>
        </g>
        <path id="face-3" d="M764 421.86C763 416.64 755.71 416.6 750.64 414.97C738.35 411.06 736.64 394.72 736.5 381.81C735.87 320.99 718.5 258.92 679.44 212.26C645.34 171.48 593.54 144.16 539.97 144.32C486.4 144.16 434.6 171.48 400.5 212.26C361.5 258.92 344.07 320.99 343.44 381.81C343.31 394.72 341.59 411.06 329.3 414.97C324.23 416.6 316.99 416.64 315.94 421.86C314.11 430.86 334.37 430.93 333.61 440.1C333.17 445.44 325.99 446.65 321.79 449.95C316.6 454.01 316.43 462.95 321.43 467.21C326.43 471.47 335.23 469.89 338.43 464.13C341.52 495.23 363.58 522.13 390.51 537.94C417.44 553.75 448.83 560.19 479.82 564.28C499.775 566.989 519.867 568.565 540 569C560.127 568.551 580.213 566.962 600.16 564.24C631.16 560.15 662.54 553.76 689.47 537.9C716.4 522.04 738.47 495.19 741.55 464.09C744.74 469.85 753.55 471.45 758.55 467.17C763.55 462.89 763.38 453.97 758.19 449.91C753.99 446.61 746.81 445.4 746.37 440.06C745.6 430.93 765.86 430.88 764 421.86Z" fill="white" stroke="#F68B62" stroke-width="8" stroke-linecap="round" stroke-linejoin="round"/>
        <g id="eyes-3">
            <path id="Vector_5" d="M618.14 443.74C598.14 445.39 581.3 431.28 580.44 412.24C579.58 393.2 595.06 376.45 615 374.8C634.94 373.15 651.85 387.26 652.71 406.29C653.57 425.32 638.11 442.1 618.14 443.74Z" fill="#F68B62" stroke="#F68B62" stroke-width="8" stroke-linecap="round" stroke-linejoin="round"/>
            <path id="Vector_6" d="M609.595 395.763C610.476 391.903 608.005 388.046 604.074 387.148C600.143 386.251 596.243 388.653 595.361 392.514C594.48 396.374 596.952 400.231 600.882 401.129C604.813 402.026 608.714 399.624 609.595 395.763Z" fill="white" stroke="#F68B62" stroke-width="4" stroke-linecap="round" stroke-linejoin="round"/>
            <path id="Vector_7" d="M500.42 408.23C501.42 427.23 486.05 443.15 466.03 443.72C446.01 444.29 428.96 429.34 427.93 410.31C426.9 391.28 442.31 375.39 462.32 374.81C482.33 374.23 499.4 389.2 500.42 408.23Z" fill="#F68B62" stroke="#F68B62" stroke-width="8" stroke-linecap="round" stroke-linejoin="round"/>
            <path id="Vector_8" d="M480.914 398.751C484.407 396.707 485.625 392.29 483.633 388.887C481.641 385.483 477.194 384.382 473.7 386.427C470.207 388.472 468.989 392.889 470.981 396.292C472.973 399.695 477.42 400.796 480.914 398.751Z" fill="white" stroke="#F68B62" stroke-width="4" stroke-linecap="round" stroke-linejoin="round"/>
            <path id="mouth" d="M560.66 475.23C559.98 477.68 557.87 478.77 554.01 479.65C550.72 480.4 546.49 480.33 543.85 478.71C542.701 478.042 541.743 477.09 541.068 475.944C540.394 474.799 540.026 473.499 540 472.17V472.3C539.974 473.629 539.606 474.929 538.932 476.074C538.257 477.22 537.299 478.172 536.15 478.84C533.51 480.45 529.28 480.53 525.99 479.78C522.13 478.89 519.99 477.78 519.34 475.36" stroke="#F68B62" stroke-width="8" stroke-linecap="round" stroke-linejoin="round"/>
            <path id="Vector_9" d="M549.39 456.31C549.39 458.62 545.19 466.38 540 466.38C534.81 466.38 530.61 458.62 530.61 456.31C530.61 452.78 534.81 453.06 540 453.06C545.19 453.06 549.39 452.78 549.39 456.31Z" fill="white" stroke="#F68B62" stroke-width="8" stroke-linecap="round" stroke-linejoin="round"/>
            <path id="Vector_10" d="M547.98 480.6H532.02V491.87H547.98V480.6Z" fill="white" stroke="#F68B62" stroke-width="8" stroke-linecap="round" stroke-linejoin="round"/>
        </g>
    </g>
</svg>
