<svg width="1080" height="1080" viewBox="0 0 1080 1080" fill="none" xmlns="http://www.w3.org/2000/svg">
<g id="avatar-3">
<g id="body-3">
<g id="legs">
<path id="Vector" d="M563.59 901.66C551.26 973.3 582.18 984.2 614.75 988.22C647.32 992.24 666.68 982.04 677.31 929.22C691.67 857.85 656.54 783.22 644.91 779.22C614.4 768.75 575.93 830 563.59 901.66Z" fill="white" stroke="#F68B62" stroke-width="8" stroke-linecap="round" stroke-linejoin="round"/>
<path id="Vector_2" d="M516.41 901.66C528.74 973.3 497.82 984.2 465.25 988.22C432.68 992.24 413.32 982.04 402.69 929.22C388.33 857.85 423.46 783.22 435.09 779.22C465.6 768.75 504.07 830 516.41 901.66Z" fill="white" stroke="#F68B62" stroke-width="8" stroke-linecap="round" stroke-linejoin="round"/>
</g>
<g id="arms">
<path id="Vector_3" d="M668.9 679.52C686.2 699.33 711 732.41 741 733C758.72 733.32 779.32 723 787.19 706.22C795.74 687.99 777.85 664.61 765.36 651.61C746.822 632.536 726.858 614.901 705.64 598.86C687.3 584.86 667.51 569.22 645.21 561.56C639.45 559.56 629.55 555.11 623.21 556.97C597 564.6 621.19 624.87 668.9 679.52Z" fill="white" stroke="#F68B62" stroke-width="8" stroke-linecap="round" stroke-linejoin="round"/>
<path id="Vector_4" d="M411.1 679.52C393.8 699.33 369 732.41 339 733C321.28 733.32 300.68 723 292.81 706.22C284.26 687.99 302.15 664.61 314.64 651.61C333.178 632.536 353.143 614.901 374.36 598.86C392.7 584.86 412.49 569.22 434.79 561.56C440.55 559.56 450.45 555.11 456.79 556.97C483 564.6 458.81 624.87 411.1 679.52Z" fill="white" stroke="#F68B62" stroke-width="8" stroke-linecap="round" stroke-linejoin="round"/>
</g>
<path id="torso" d="M688 660.33C670.77 582.45 619.07 524 540 524C460.93 524 409.23 582.45 392 660.33C382.16 704.86 382.21 755.16 408.77 792.72C430.48 823.42 464.29 841.2 499.66 848.13C526.305 853.157 553.655 853.157 580.3 848.13C615.67 841.2 649.48 823.42 671.19 792.72C697.77 755.16 697.82 704.86 688 660.33Z" fill="white" stroke="#F68B62" stroke-width="8" stroke-linecap="round" stroke-linejoin="round"/>
<path id="torso_2" d="M622.76 677.42C613.14 634.34 584.22 602 540 602C495.78 602 466.86 634.34 457.24 677.42C451.73 702.06 451.76 729.89 466.62 750.67C478.76 767.67 497.67 777.49 517.45 781.32C532.355 784.093 547.645 784.093 562.55 781.32C582.33 777.49 601.24 767.65 613.38 750.67C628.24 729.89 628.27 702.06 622.76 677.42Z" fill="white" stroke="#F68B62" stroke-width="8" stroke-linecap="round" stroke-linejoin="round"/>
</g>
<g id="ears-3">
<path id="Vector_5" d="M494.44 96.3C507.03 116.21 512.12 166.91 516.66 189.18C517.66 193.82 519.43 200.57 517.35 205.18C514.85 210.69 510.35 207.85 505.17 206.27C476.8 197.73 446.07 196.83 417.63 206.48C418.803 186.526 421.198 166.662 424.8 147C427.35 133.54 430.52 120 436.55 107.43C441.67 96.75 450.32 80.73 464.9 78.92C472.17 78.02 479.51 81.01 484.98 85.39C488.713 88.4809 491.909 92.1672 494.44 96.3Z" fill="white" stroke="#F68B62" stroke-width="8" stroke-linecap="round" stroke-linejoin="round"/>
<path id="Vector_6" d="M485.13 131.71C487.22 141.37 489.8 175.77 490.93 185.56C491.23 188.09 493.47 199.4 491.18 201.11C489.06 202.7 479.26 198.63 476.31 198.45C471.15 198.15 465.96 198.56 460.78 198.38C457.96 198.28 454.84 198.56 452.05 198.14C447.53 197.47 447.95 198.44 448.15 193.59C448.49 185.07 451.83 102.3 473.26 110.25C481 113.12 483.39 123.67 485.13 131.71Z" fill="white" stroke="#F68B62" stroke-width="8" stroke-linecap="round" stroke-linejoin="round"/>
<path id="Vector_7" d="M585.56 96.3001C572.97 116.21 567.88 166.91 563.34 189.18C562.34 193.82 560.57 200.57 562.65 205.18C565.15 210.69 569.65 207.85 574.83 206.27C603.2 197.73 633.93 196.83 662.37 206.48C661.197 186.526 658.802 166.662 655.2 147C652.65 133.54 649.48 120 643.45 107.43C638.33 96.7901 629.68 80.7701 615.1 79.0001C607.83 78.1001 600.49 81.0901 595.02 85.4701C591.294 88.5369 588.098 92.1958 585.56 96.3001Z" fill="white" stroke="#F68B62" stroke-width="8" stroke-linecap="round" stroke-linejoin="round"/>
<path id="Vector_8" d="M594.87 131.71C592.78 141.37 590.2 175.77 589.07 185.56C588.77 188.09 586.53 199.4 588.82 201.11C590.94 202.7 600.74 198.63 603.69 198.45C608.85 198.15 614.04 198.56 619.22 198.38C622.04 198.28 625.16 198.56 627.95 198.14C632.47 197.47 632.05 198.44 631.85 193.59C631.51 185.07 628.17 102.3 606.74 110.25C599 113.12 596.61 123.67 594.87 131.71Z" fill="white" stroke="#F68B62" stroke-width="8" stroke-linecap="round" stroke-linejoin="round"/>
</g>
<path id="face-3" d="M764 420.86C763 415.64 755.71 415.6 750.64 413.97C738.35 410.06 736.64 393.72 736.5 380.81C735.87 319.99 718.5 257.92 679.44 211.26C645.34 170.48 593.54 143.16 539.97 143.32C486.4 143.16 434.6 170.48 400.5 211.26C361.5 257.92 344.07 319.99 343.44 380.81C343.31 393.72 341.59 410.06 329.3 413.97C324.23 415.6 316.99 415.64 315.94 420.86C314.11 429.86 334.37 429.93 333.61 439.1C333.17 444.44 325.99 445.65 321.79 448.95C316.6 453.01 316.43 461.95 321.43 466.21C326.43 470.47 335.23 468.89 338.43 463.13C341.52 494.23 363.58 521.13 390.51 536.94C417.44 552.75 448.83 559.19 479.82 563.28C499.775 565.989 519.867 567.565 540 568C560.127 567.551 580.213 565.962 600.16 563.24C631.16 559.15 662.54 552.76 689.47 536.9C716.4 521.04 738.47 494.19 741.55 463.09C744.74 468.85 753.55 470.45 758.55 466.17C763.55 461.89 763.38 452.97 758.19 448.91C753.99 445.61 746.81 444.4 746.37 439.06C745.6 429.93 765.86 429.88 764 420.86Z" fill="white" stroke="#F68B62" stroke-width="8" stroke-linecap="round" stroke-linejoin="round"/>
<g id="eyes-3">
<path id="Vector_9" d="M620 442.73C599.55 444.42 582.26 429.98 581.38 410.48C580.5 390.98 596.38 373.82 616.81 372.13C637.24 370.44 654.54 384.89 655.42 404.39C656.3 423.89 640.47 441.05 620 442.73Z" fill="#F68B62" stroke="#F68B62" stroke-width="8" stroke-linecap="round" stroke-linejoin="round"/>
<path id="Vector_10" d="M611.255 393.591C612.157 389.639 609.628 385.691 605.606 384.773C601.584 383.854 597.592 386.314 596.69 390.266C595.788 394.218 598.317 398.166 602.339 399.084C606.361 400.003 610.353 397.543 611.255 393.591Z" fill="white" stroke="#F68B62" stroke-width="4" stroke-linecap="round" stroke-linejoin="round"/>
<path id="Vector_11" d="M499.46 406.37C500.51 425.86 484.74 442.13 464.24 442.72C443.74 443.31 426.24 427.99 425.24 408.5C424.24 389.01 439.96 372.74 460.45 372.15C480.94 371.56 498.41 386.89 499.46 406.37Z" fill="#F68B62" stroke="#F68B62" stroke-width="8" stroke-linecap="round" stroke-linejoin="round"/>
<path id="Vector_12" d="M479.481 396.654C483.056 394.561 484.3 390.041 482.261 386.556C480.222 383.072 475.671 381.944 472.096 384.036C468.521 386.128 467.276 390.649 469.315 394.133C471.355 397.618 475.906 398.746 479.481 396.654Z" fill="white" stroke="#F68B62" stroke-width="4" stroke-linecap="round" stroke-linejoin="round"/>
<path id="mouth" d="M560.66 477.23C559.98 479.68 557.87 480.77 554.01 481.65C550.72 482.4 546.49 482.33 543.85 480.71C542.701 480.042 541.743 479.09 541.068 477.944C540.394 476.799 540.026 475.499 540 474.17V474.3C539.974 475.629 539.606 476.929 538.932 478.074C538.257 479.22 537.299 480.172 536.15 480.84C533.51 482.45 529.28 482.53 525.99 481.78C522.13 480.89 519.99 479.78 519.34 477.36" stroke="#F68B62" stroke-width="8" stroke-linecap="round" stroke-linejoin="round"/>
<path id="Vector_13" d="M549.39 455.31C549.39 457.62 545.19 465.38 540 465.38C534.81 465.38 530.61 457.62 530.61 455.31C530.61 451.78 534.81 452.06 540 452.06C545.19 452.06 549.39 451.78 549.39 455.31Z" fill="white" stroke="#F68B62" stroke-width="8" stroke-linecap="round" stroke-linejoin="round"/>
<path id="Vector_14" d="M547.98 482.6H532.02V493.87H547.98V482.6Z" fill="white" stroke="#F68B62" stroke-width="8" stroke-linecap="round" stroke-linejoin="round"/>
</g>
</g>
</svg>
