<svg width="1080" height="1193" viewBox="0 0 1080 1193" fill="none"
    xmlns="http://www.w3.org/2000/svg">
    <g id="avatar-3">
        <g id="body-3">
            <path id="leg" d="M569.62 979.54C556.49 1057.84 589.42 1069.76 624.1 1074.14C658.78 1078.52 679.4 1067.39 690.71 1009.68C706.01 931.68 668.6 850.07 656.21 845.68C623.72 834.29 582.76 901.25 569.62 979.54Z" fill="white" stroke="#F68B62" stroke-width="8" stroke-linecap="round" stroke-linejoin="round"/>
            <path id="leg_2" d="M510.38 979.54C523.51 1057.84 490.58 1069.76 455.9 1074.14C421.22 1078.52 400.6 1067.39 389.29 1009.68C373.99 931.68 411.4 850.07 423.79 845.68C456.28 834.29 497.24 901.25 510.38 979.54Z" fill="white" stroke="#F68B62" stroke-width="8" stroke-linecap="round" stroke-linejoin="round"/>
            <path id="arm" d="M404.52 784.36C350 847.78 317.05 836 289 817.8C260.95 799.6 255.4 779.08 294.4 731.33C347.12 666.79 440.04 632.05 452.4 636.57C484.58 648.44 459 720.93 404.52 784.36Z" fill="white" stroke="#F68B62" stroke-width="8" stroke-linecap="round" stroke-linejoin="round"/>
            <path id="arm_2" d="M675.48 784.36C730 847.78 763 836 791.05 817.8C819.1 799.6 824.65 779.08 785.65 731.33C732.93 666.79 640 632.05 627.7 636.57C595.42 648.44 621 720.93 675.48 784.36Z" fill="white" stroke="#F68B62" stroke-width="8" stroke-linecap="round" stroke-linejoin="round"/>
            <path id="torso" d="M702.58 739.53C683.67 668.39 626.87 615 540 615C453.13 615 396.33 668.39 377.42 739.53C366.61 780.2 366.67 826.15 395.85 860.46C419.7 888.46 456.85 904.75 495.7 911.07C525.055 915.656 554.945 915.656 584.3 911.07C623.16 904.75 660.3 888.5 684.15 860.46C713.33 826.15 713.39 780.2 702.58 739.53Z" fill="white" stroke="#F68B62" stroke-width="8" stroke-linecap="round" stroke-linejoin="round"/>
            <path id="torso_2" d="M630.93 750.65C620.35 710.86 588.58 681 540 681C491.42 681 459.65 710.86 449.07 750.65C443.07 773.39 443.07 799.09 459.38 818.28C472.72 833.97 493.49 843.05 515.22 846.59C531.641 849.15 548.359 849.15 564.78 846.59C586.51 843.05 607.28 833.97 620.62 818.28C636.94 799.09 637 773.39 630.93 750.65Z" fill="white" stroke="#F68B62" stroke-width="8" stroke-linecap="round" stroke-linejoin="round"/>
        </g>
        <g id="ears-3">
            <path id="Vector_5" d="M492.53 105.458C511.53 148.008 519.26 256.356 526.13 303.952C527.56 313.854 530.32 328.298 527.13 338.074C523.34 349.844 516.61 343.776 508.71 340.408C465.8 322.155 419.32 320.225 376.33 340.862C378.09 298.312 381.709 255.917 387.17 213.87C391.01 185.121 395.81 156.245 404.93 129.351C412.68 106.518 425.75 72.2942 447.8 68.4215C458.8 66.4914 469.9 72.8745 478.16 82.2977C483.916 88.9818 488.769 96.8046 492.53 105.458Z" fill="white" stroke="#F68B62" stroke-width="8" stroke-linecap="round" stroke-linejoin="round"/>
            <path id="Vector_6" d="M478.44 181.134C481.6 201.772 485.51 275.278 487.22 296.219C487.67 301.605 491.07 325.788 487.6 329.433C484.39 332.827 469.6 324.135 465.11 323.769C457.3 323.126 449.45 323.996 441.63 323.605C437.36 323.391 432.63 323.984 428.43 323.088C421.58 321.65 422.23 323.731 422.53 313.375C423.04 295.159 428.09 118.275 460.53 135.254C472.21 141.385 475.81 163.953 478.44 181.134Z" fill="white" stroke="#F68B62" stroke-width="8" stroke-linecap="round" stroke-linejoin="round"/>
            <path id="Vector_7" d="M587.47 105.458C568.47 148.008 560.74 256.356 553.87 303.952C552.44 313.854 549.68 328.298 552.87 338.074C556.66 349.844 563.39 343.776 571.29 340.408C614.2 322.155 660.68 320.225 703.67 340.862C701.91 298.312 698.291 255.917 692.83 213.87C688.99 185.121 684.19 156.245 675.07 129.351C667.32 106.518 654.25 72.2942 632.2 68.4215C621.2 66.4914 610.1 72.8745 601.84 82.2977C596.084 88.9818 591.231 96.8046 587.47 105.458Z" fill="white" stroke="#F68B62" stroke-width="8" stroke-linecap="round" stroke-linejoin="round"/>
            <path id="Vector_8" d="M601.56 181.134C598.4 201.772 594.49 275.278 592.78 296.219C592.33 301.605 588.93 325.788 592.4 329.433C595.61 332.827 610.4 324.135 614.89 323.769C622.7 323.126 630.55 323.996 638.37 323.605C642.64 323.391 647.37 323.984 651.57 323.088C658.42 321.65 657.77 323.731 657.47 313.375C656.96 295.159 651.91 118.275 619.47 135.254C607.79 141.385 604.19 163.953 601.56 181.134Z" fill="white" stroke="#F68B62" stroke-width="8" stroke-linecap="round" stroke-linejoin="round"/>
        </g>
        <path id="face-3" d="M760.151 526.66C761.359 524.029 762.307 521.287 762.983 518.472C777.741 513.288 787.551 506.77 786.362 502.261C785.174 497.753 773.74 496.613 758.614 498.747C757.145 492.162 756.758 478.828 757.648 472.089C770.589 372.139 697.802 260.642 598.175 235.848C579.199 231.216 559.728 228.917 540.194 229.002H538.261C518.733 229.072 499.277 231.368 480.271 235.848C380.644 260.652 307.857 376.813 320.798 476.762C321.629 484.028 321.303 491.38 319.832 498.544C305.45 496.7 294.702 497.975 293.581 502.261C292.46 506.548 301.478 512.795 315.308 517.874C315.84 520.925 317.125 522.141 318.449 525.26C301.932 531.208 290.643 538.932 292.132 543.759C293.552 548.394 306.301 548.992 322.586 545.69C328.491 612.146 416.337 649 538.261 649H540.194C662.273 649 750.244 612.021 755.898 545.381C772.899 549.002 786.401 548.519 787.87 543.74C789.388 538.777 777.451 532.704 760.151 526.66Z" fill="white" stroke="#F68B62" stroke-width="8" stroke-linecap="round" stroke-linejoin="round"/>
        <g id="eyes-3">
            <path id="Vector_9" d="M623.21 514.56C602 516.22 584 502 583.06 482.89C582.12 463.78 598.63 446.89 619.9 445.23C641.17 443.57 659.13 457.76 660.05 476.9C660.97 496.04 644.48 512.91 623.21 514.56Z" fill="#F68B62" stroke="#F68B62" stroke-width="8" stroke-linecap="round" stroke-linejoin="round"/>
            <path id="Vector_10" d="M614.265 465.066C614.474 461.089 611.173 457.684 606.893 457.46C602.613 457.235 598.975 460.277 598.767 464.254C598.558 468.23 601.859 471.635 606.139 471.86C610.418 472.084 614.057 469.042 614.265 465.066Z" fill="white" stroke="#F68B62" stroke-width="4" stroke-linecap="round" stroke-linejoin="round"/>
            <path id="Vector_11" d="M497.86 478.85C499 498 482.55 514 461.23 514.54C439.91 515.08 421.75 500.08 420.66 480.94C419.57 461.8 435.97 445.83 457.28 445.25C478.59 444.67 496.77 459.72 497.86 478.85Z" fill="#F68B62" stroke="#F68B62" stroke-width="8" stroke-linecap="round" stroke-linejoin="round"/>
            <path id="Vector_12" d="M474.382 470.187C478.615 469.517 481.541 465.785 480.918 461.852C480.295 457.919 476.359 455.275 472.126 455.945C467.893 456.615 464.966 460.347 465.589 464.28C466.212 468.213 470.149 470.858 474.382 470.187Z" fill="white" stroke="#F68B62" stroke-width="4" stroke-linecap="round" stroke-linejoin="round"/>
            <g id="mouth">
                <path id="mouth_2" d="M562 548.29C561.27 550.89 559 552.05 554.92 552.99C551.41 553.79 546.92 553.71 544.09 551.99C542.864 551.273 541.844 550.252 541.127 549.026C540.411 547.8 540.022 546.41 540 544.99V545.13C539.977 546.55 539.588 547.94 538.872 549.166C538.155 550.392 537.135 551.412 535.91 552.13C533.09 553.85 528.59 553.92 525.08 553.13C520.97 552.19 518.73 551.03 518 548.43" stroke="#F68B62" stroke-width="8" stroke-linecap="round" stroke-linejoin="round"/>
                <path id="Vector_13" d="M550 525.76C550 528.76 545.52 538.66 540 538.66C534.48 538.66 530 528.73 530 525.76C530 521.25 534.48 521.6 540 521.6C545.52 521.6 550 521.25 550 525.76Z" fill="white" stroke="#F68B62" stroke-width="8" stroke-linecap="round" stroke-linejoin="round"/>
                <path id="Vector_14" d="M548.5 555H531.5V567H548.5V555Z" fill="white" stroke="#F68B62" stroke-width="8" stroke-linecap="round" stroke-linejoin="round"/>
            </g>
        </g>
    </g>
</svg>
