<svg width="1080" height="1080" viewBox="0 0 1080 1080" fill="none"
    xmlns="http://www.w3.org/2000/svg">
    <g id="avatar-1">
        <g id="body-1">
            <g id="extremities">
                <path id="leg" d="M569.62 921.91C556.49 1012.1 589.42 1025.82 624.1 1030.91C658.78 1036 679.4 1023.12 690.71 956.66C706.01 866.81 668.6 772.81 656.21 767.79C623.72 754.6 582.76 831.72 569.62 921.91Z" fill="#F68B62" stroke="#F68B62" stroke-width="8" stroke-linecap="round" stroke-linejoin="round"/>
                <path id="leg_2" d="M510.38 921.91C523.51 1012.1 490.58 1025.82 455.9 1030.91C421.22 1036 400.6 1023.12 389.29 956.66C373.99 866.81 411.4 772.81 423.79 767.79C456.28 754.6 497.24 831.72 510.38 921.91Z" fill="#F68B62" stroke="#F68B62" stroke-width="8" stroke-linecap="round" stroke-linejoin="round"/>
                <path id="arm" d="M404.52 697.08C350 770.14 317.05 756.56 289 735.6C260.95 714.64 255.4 691 294.4 636C347.12 561.65 440.04 521.63 452.4 526.85C484.58 540.51 459 624 404.52 697.08Z" fill="#F68B62" stroke="#F68B62" stroke-width="8" stroke-linecap="round" stroke-linejoin="round"/>
                <path id="arm_2" d="M675.48 697.08C730 770.14 763 756.56 791.05 735.6C819.1 714.64 824.65 691 785.65 636C732.93 561.65 640 521.63 627.7 526.85C595.42 540.51 621 624 675.48 697.08Z" fill="#F68B62" stroke="#F68B62" stroke-width="8" stroke-linecap="round" stroke-linejoin="round"/>
            </g>
            <path id="torso" d="M702.58 645.44C683.67 563.5 626.87 502 540 502C453.13 502 396.33 563.5 377.42 645.44C366.61 692.29 366.67 745.22 395.85 784.74C419.7 817.04 456.85 835.74 495.7 843.04C524.997 848.32 555.003 848.32 584.3 843.04C623.16 835.75 660.3 817.04 684.15 784.74C713.33 745.22 713.39 692.29 702.58 645.44Z" fill="white" stroke="#F68B62" stroke-width="8" stroke-linecap="round" stroke-linejoin="round"/>
        </g>
        <g id="ears-1">
            <path id="Vector" d="M737.05 244.34C785.64 244.34 825.03 203.746 825.03 153.67C825.03 103.594 785.64 63 737.05 63C688.46 63 649.07 103.594 649.07 153.67C649.07 203.746 688.46 244.34 737.05 244.34Z" fill="#F68B62" stroke="#F68B62" stroke-width="8" stroke-linecap="round" stroke-linejoin="round"/>
            <path id="Vector_2" d="M342.95 244.34C391.54 244.34 430.93 203.746 430.93 153.67C430.93 103.594 391.54 63 342.95 63C294.36 63 254.97 103.594 254.97 153.67C254.97 203.746 294.36 244.34 342.95 244.34Z" fill="#F68B62" stroke="#F68B62" stroke-width="8" stroke-linecap="round" stroke-linejoin="round"/>
        </g>
        <path id="face-1" d="M313.91 332.71C315.334 344.44 313.673 356.339 309.09 367.23C304.724 377.482 302.459 388.507 302.43 399.65C302.43 475.51 408.79 537 540 537C671.21 537 777.57 475.51 777.57 399.65C777.541 388.507 775.276 377.482 770.91 367.23C766.348 356.554 764.658 344.871 766.01 333.34C770.065 301.183 767.214 268.531 757.648 237.563C748.082 206.595 732.02 178.023 710.536 153.755C689.051 129.487 662.637 110.081 633.057 96.831C603.477 83.5814 571.412 76.7934 539 76.92C413.66 77.45 312.2 179.24 312.2 304.71C312.197 314.07 312.768 323.42 313.91 332.71Z" fill="white" stroke="#F68B62" stroke-width="8" stroke-linecap="round" stroke-linejoin="round"/>
        <g id="eyes-1">
            <g id="eyes">
                <path id="Vector_3" d="M694.632 376.596C701.428 351.212 680.924 323.669 648.835 315.077C616.745 306.485 585.222 320.096 578.425 345.48C571.629 370.863 592.132 398.406 624.222 406.999C656.311 415.591 687.835 401.979 694.632 376.596Z" fill="#F68B62" stroke="#F68B62" stroke-width="8" stroke-linecap="round" stroke-linejoin="round"/>
                <path id="Vector_4" d="M611.82 351.15C618.514 351.15 623.94 346.727 623.94 341.27C623.94 335.813 618.514 331.39 611.82 331.39C605.126 331.39 599.7 335.813 599.7 341.27C599.7 346.727 605.126 351.15 611.82 351.15Z" fill="white" stroke="#F68B62" stroke-width="8" stroke-linecap="round" stroke-linejoin="round"/>
                <path id="Vector_5" d="M455.803 406.957C487.892 398.365 508.396 370.822 501.6 345.438C494.803 320.055 463.279 306.443 431.19 315.035C399.1 323.627 378.597 351.17 385.393 376.554C392.19 401.937 423.714 415.549 455.803 406.957Z" fill="#F68B62" stroke="#F68B62" stroke-width="8" stroke-linecap="round" stroke-linejoin="round"/>
                <path id="Vector_6" d="M468.18 351.14C474.874 351.14 480.3 346.721 480.3 341.27C480.3 335.819 474.874 331.4 468.18 331.4C461.486 331.4 456.06 335.819 456.06 341.27C456.06 346.721 461.486 351.14 468.18 351.14Z" fill="white" stroke="#F68B62" stroke-width="8" stroke-linecap="round" stroke-linejoin="round"/>
            </g>
            <path id="mouth" d="M558 438.29C557.41 440.89 555.58 442.05 552.22 442.99C549.37 443.79 545.69 443.71 543.39 441.99C542.334 441.157 541.483 440.093 540.904 438.879C540.325 437.666 540.033 436.335 540.05 434.99V435.13C540.067 436.475 539.774 437.805 539.195 439.019C538.616 440.232 537.766 441.297 536.71 442.13C534.41 443.85 530.71 443.92 527.88 443.13C524.52 442.19 522.69 441.03 522.1 438.43" stroke="#F68B62" stroke-width="8" stroke-linecap="round" stroke-linejoin="round"/>
            <path id="nose" d="M552.24 416.76C552.24 419.76 546.76 425.66 540 425.66C533.24 425.66 527.76 419.73 527.76 416.76C527.76 412.25 533.24 408.6 540 408.6C546.76 408.6 552.24 412.25 552.24 416.76Z" fill="white" stroke="#F68B62" stroke-width="8" stroke-linecap="round" stroke-linejoin="round"/>
        </g>
    </g>
</svg>
